<svg xmlns="http://www.w3.org/2000/svg" width="28.349" height="28.349" viewBox="0 0 28.349 28.349"><defs><style>.a,.c{fill:#098743;}.b,.c{stroke:none;}</style></defs><g transform="translate(-7.7 -7.7)"><g class="a" transform="translate(4.114 4.114)"><path class="b" d="M 27.95022010803223 31.22760963439941 L 27.59667015075684 30.87405014038086 L 17.76025009155273 21.03763008117676 L 7.923830032348633 30.87405014038086 L 7.570280075073242 31.22760963439941 L 7.216730117797852 30.87405014038086 L 4.646450042724609 28.30377006530762 L 4.292890071868896 27.95022010803223 L 4.646450042724609 27.59667015075684 L 14.48287010192871 17.76025009155273 L 4.646450042724609 7.923830032348633 L 4.292890071868896 7.570280075073242 L 4.646450042724609 7.216730117797852 L 7.216730117797852 4.646450042724609 L 7.570280075073242 4.292890071868896 L 7.923830032348633 4.646450042724609 L 17.76025009155273 14.48287010192871 L 27.59667015075684 4.646450042724609 L 27.95022010803223 4.292890071868896 L 28.30377006530762 4.646450042724609 L 30.87405014038086 7.216730117797852 L 31.22760963439941 7.570280075073242 L 30.87405014038086 7.923830032348633 L 21.03763008117676 17.76025009155273 L 30.87405014038086 27.59667015075684 L 31.22760963439941 27.95022010803223 L 30.87405014038086 28.30377006530762 L 28.30377006530762 30.87405014038086 L 27.95022010803223 31.22760963439941 Z"/><path class="c" d="M 7.570280075073242 5 L 5 7.570280075073242 L 15.18997001647949 17.76025009155273 L 5 27.95022010803223 L 7.570280075073242 30.52050018310547 L 17.76025009155273 20.33053016662598 L 27.95022010803223 30.52050018310547 L 30.52050018310547 27.95022010803223 L 20.33053016662598 17.76025009155273 L 30.52050018310547 7.570280075073242 L 27.95022010803223 5 L 17.76025009155273 15.18997001647949 L 7.570280075073242 5 M 7.570280075073242 3.585790634155273 L 8.277389526367188 4.292890548706055 L 17.76025009155273 13.77574920654297 L 27.24311065673828 4.292890548706055 L 27.95022010803223 3.585790634155273 L 28.65732955932617 4.292890548706055 L 31.22760963439941 6.863170623779297 L 31.9347095489502 7.570280075073242 L 31.22760963439941 8.277389526367188 L 21.7447509765625 17.76025009155273 L 31.22760963439941 27.24311065673828 L 31.9347095489502 27.95022010803223 L 31.22760963439941 28.65732955932617 L 28.65732955932617 31.22760963439941 L 27.95022010803223 31.9347095489502 L 27.24311065673828 31.22760963439941 L 17.76025009155273 21.7447509765625 L 8.277389526367188 31.22760963439941 L 7.570280075073242 31.9347095489502 L 6.863170623779297 31.22760963439941 L 4.292890548706055 28.65732955932617 L 3.585790634155273 27.95022010803223 L 4.292890548706055 27.24311065673828 L 13.77574920654297 17.76025009155273 L 4.292890548706055 8.277389526367188 L 3.585790634155273 7.570280075073242 L 4.292890548706055 6.863170623779297 L 6.863170623779297 4.292890548706055 L 7.570280075073242 3.585790634155273 Z"/></g></g></svg>