<svg xmlns="http://www.w3.org/2000/svg" width="435.09" height="202.76" viewBox="0 0 435.09 202.76"><defs><style>.a{fill:#49b860;}.b{fill:#098743;}</style></defs><g transform="translate(0)"><path class="a" d="M8.64,195.27a7.786,7.786,0,0,1-5.13-7.58,7.885,7.885,0,0,1,7.74-7.87,6.911,6.911,0,0,1,3.33.8A47.43,47.43,0,0,0,39.1,187.3c16.35.04,25.31-8.78,25.35-25.49l.01-6.47c-6.68,8.98-15.03,15.26-28.2,15.24C17.48,170.53-.05,155.99,0,131.54v-.32c.05-24.6,17.8-39.07,36.43-39.03,13.48.03,21.79,6.51,27.99,14.26l.01-3.94a9.173,9.173,0,1,1,18.33.2l-.13,57.56c-.03,14.04-3.54,24.44-10.21,31.36-7.29,7.55-18.5,11.16-32.89,11.13A66.821,66.821,0,0,1,8.64,195.27Zm56.02-63.74v-.32c.03-13.56-10.7-22.89-23.42-22.92s-22.73,9.1-22.76,22.82v.32c-.03,13.56,10.1,22.89,22.67,22.92C53.86,154.37,64.63,145.09,64.66,131.53Z"/><path class="a" d="M92.78,153.35v-.32c.04-17.98,13.54-26.78,33.07-26.74a64.294,64.294,0,0,1,21.5,3.52v-2.05c.03-11.83-6.93-18.15-19.8-18.18a45.671,45.671,0,0,0-17.72,3.27,10.1,10.1,0,0,1-2.88.47,7.788,7.788,0,0,1-7.71-7.9,8.343,8.343,0,0,1,5.01-7.56A66.207,66.207,0,0,1,130,93.03c11.96.03,20.89,3.36,26.48,9.36,5.89,6.01,8.6,14.84,8.58,25.72l-.09,41a8.91,8.91,0,0,1-8.96,9.13c-5.3-.01-8.93-3.8-8.92-8.06l.01-3.15c-5.47,6.77-13.81,12.11-26.07,12.09C106.05,179.09,92.74,170.07,92.78,153.35Zm54.83-5.87.01-5.68a48.967,48.967,0,0,0-18.17-3.35c-11.81-.03-18.79,5.16-18.81,13.84v.32c-.02,8.04,6.79,12.63,15.57,12.65C138.34,165.28,147.59,158.05,147.61,147.48Z"/><path class="a" d="M179.51,102.92c.01-5.36,3.96-9.61,9.11-9.6a9.377,9.377,0,0,1,9.22,9.64l-.02,8.52c4.26-10.4,12.15-18.27,20.18-18.25,5.75.01,9.08,3.96,9.07,9.48a8.857,8.857,0,0,1-7.29,9.13c-13.03,2.34-21.99,12.73-22.03,32.44l-.05,24.6a9.331,9.331,0,0,1-9.26,9.44,9.2,9.2,0,0,1-9.06-9.48Z"/><path class="a" d="M310.65,169.13a9.17,9.17,0,1,1-18.33-.04l.01-5.21c-5.93,8.66-14.27,15.58-27.29,15.55-18.78-.04-37.07-15.69-37.01-43.29v-.32c.06-27.6,18.12-43.17,37.2-43.13,13.17.03,21.49,6.83,27.23,14.73l.08-36.12a9.17,9.17,0,1,1,18.33.04Zm-64.13-33.26v.32c-.04,16.09,10.54,26.68,22.96,26.7,12.27.03,23.19-10.67,23.23-26.6v-.32c.04-16.09-10.84-26.68-23.11-26.7C257.03,109.24,246.55,119.31,246.52,135.87Z"/><path class="a" d="M326.24,103.24c.01-5.36,3.96-9.61,9.11-9.6a9.377,9.377,0,0,1,9.22,9.64l-.01,4.1c5.16-7.72,12.6-14.48,25.02-14.45,18.02.04,28.44,12.68,28.4,31.92l-.1,44.47a9.115,9.115,0,0,1-9.11,9.44,9.239,9.239,0,0,1-9.22-9.48l.08-38.64c.03-12.93-6.16-20.36-17.07-20.38-10.6-.02-18.04,7.69-18.06,20.62l-.08,38.32a9.165,9.165,0,1,1-18.32-.04Z"/><path class="b" d="M396.38,77.42H329.54a3.4,3.4,0,0,1-3.4-3.4V38.72A38.7,38.7,0,0,1,364.84,0h31.54a38.709,38.709,0,0,1,38.71,38.71h0A38.709,38.709,0,0,1,396.38,77.42Z"/></g></svg>