<svg xmlns="http://www.w3.org/2000/svg" width="39.306" height="37.668" viewBox="0 0 39.306 37.668"><defs><style>.a{fill:#ff8f00;}</style></defs><g transform="translate(0 0)"><path class="a" d="M8.75,17.612v7.6a1.228,1.228,0,0,0,2.218.727l4.443-6.047Z" transform="translate(5.58 11.232)"/><path class="a" d="M38.79.228A1.229,1.229,0,0,0,37.509.139L.66,19.383a1.229,1.229,0,0,0,.17,2.252l10.244,3.5L32.891,6.482,16.009,26.821l17.168,5.868a1.257,1.257,0,0,0,.4.066,1.227,1.227,0,0,0,1.215-1.047l4.5-30.3a1.23,1.23,0,0,0-.5-1.182Z" transform="translate(0 0)"/></g></svg>